<svg id="Layer_1" data-name="Layer 1" xmlns="http://www.w3.org/2000/svg" viewBox="0 0 841.89 595.28"><defs><style>.cls-1{fill:#213e7f;}.cls-2{fill:#fff;}.cls-3{fill:none;}</style></defs><title>GFT_Logo_RGB</title><rect class="cls-1" x="25.13" y="225.67" width="791.63" height="143.93"/><rect class="cls-2" x="710.91" y="264" width="67.27" height="67.27"/><path class="cls-2" d="M510.57,291.53V303h15.82v11.77c-3.6,3.69-8.58,5.55-14.8,5.55-12.83,0-21.67-8.8-21.67-23s8.87-22.88,21.74-22.88a26.18,26.18,0,0,1,17.4,6.56l.71.62,8.54-8.16-.7-.75c-6.29-6.77-15.29-10.34-26-10.34-20.87,0-35.58,14-35.58,34.95s14.71,35,35.58,35c12.19,0,22.27-4.67,28.4-13.16l.19-.27V291.53Z"/><rect class="cls-3" x="25.13" y="225.67" width="791.63" height="143.93"/><polygon class="cls-2" points="608.98 275.78 608.98 263.89 556.63 263.89 556.63 331.4 570.62 331.4 570.62 303.63 606.29 303.63 606.29 291.74 570.62 291.74 570.62 275.78 608.98 275.78"/><polygon class="cls-2" points="616.49 263.87 616.49 275.75 634.52 275.75 634.52 331.3 648.5 331.3 648.5 275.75 667.05 275.75 667.05 263.87 616.49 263.87"/></svg>