<svg id="Camada_1" data-name="Camada 1" xmlns="http://www.w3.org/2000/svg" viewBox="0 0 1366 768"><defs><style>.cls-1{fill:#00579b;}.cls-2{fill:#616262;}.cls-3{fill:#0277bd;}.cls-4{fill:#1b87c9;}</style></defs><title>logo-exactaworks</title><path class="cls-1" d="M381.66,407.94q21.15,0,35.72,9.72a60,60,0,0,1,21.86,26q7.29,16.29,7.29,36.58v13.43H357.66Q363.95,518,394.24,518q19.71,0,39.15-10.85L446,538.24a78.2,78.2,0,0,1-23.86,11.43,106.49,106.49,0,0,1-31,4.29q-38,0-59.86-19.15t-21.86-53.15q0-22.28,9.14-39a63.36,63.36,0,0,1,25.58-25.72Q360.52,407.94,381.66,407.94Zm-1.14,36.86a21.59,21.59,0,0,0-15.86,6.43q-6.42,6.43-7.57,17H404q-1.71-10.56-7.57-17T380.52,444.8Z"/><path class="cls-1" d="M514.91,442.68l22-31.47h47.8L538.87,477l51.76,74.08H542.78L515,511.37l-27.86,39.72-47.94.14L491,477l-45.87-65.79h48Z"/><path class="cls-1" d="M782,407.94a99.45,99.45,0,0,1,24.29,3.43c9,2.29,10.8,3.64,10.8,3.64l.06,38.37A100,100,0,0,0,800.3,447a61.1,61.1,0,0,0-15.43-1.86,28.58,28.58,0,0,0-22.43,10.29q-9,10.28-9,26.28t9,25.72a29.3,29.3,0,0,0,22.43,9.72,59.3,59.3,0,0,0,15.43-2,97.53,97.53,0,0,0,16.86-6.58l-.06,38.91s-1.51,1.29-10.37,3.39A108.11,108.11,0,0,1,782,554q-22.29,0-39.29-8.57a61.18,61.18,0,0,1-26.29-25q-9.28-16.42-9.28-38.72t9.28-39a63.4,63.4,0,0,1,26.29-25.72Q759.71,407.94,782,407.94Z"/><path class="cls-1" d="M889.84,415.37h38.9l0,34.86H889.84v46.29q0,9.72,4.86,15.72t13.43,6a38.35,38.35,0,0,0,17.72-4.57l12.86,31.14q-4.86,4-14.86,7.15a62.41,62.41,0,0,1-18.58,3.14q-26.28,0-43.14-13.71t-16.86-38.87V450.23h-20V415.37h20V398.92l44.57-25.55Z"/><path class="cls-1" d="M991.48,446.23a80.93,80.93,0,0,0-18.86,2.57,101.47,101.47,0,0,0-18.57,6.29L954,415.73s3-1.36,14.07-3.93a132.56,132.56,0,0,1,29.71-3.86q17.43,0,30.87,6.86a49.49,49.49,0,0,1,20.71,19.29q7.29,12.42,7.29,28.43v88.3l-35.51.14.08-14.72q-15.44,17.73-34,17.72-25.14,0-38-12.43t-12.86-33.86q0-21.15,14.29-31.72t39.14-10.57h21.72q-.57-9.15-5.86-14.15T991.48,446.23Zm-1.43,46q-7.14,0-11.57,4.28a14.45,14.45,0,0,0-4.43,10.86,12.07,12.07,0,0,0,3.71,8.86,13.14,13.14,0,0,0,9.72,3.71q12.57,0,24.29-10.85V492.24Z"/><path class="cls-1" d="M635.7,446.23a81,81,0,0,0-18.86,2.57,101.47,101.47,0,0,0-18.57,6.29l-.07-39.36s3-1.36,14.07-3.93A132.57,132.57,0,0,1,642,407.94q17.41,0,30.86,6.86a49.43,49.43,0,0,1,20.71,19.29q7.29,12.42,7.29,28.43v88.3l-35.51.14.08-14.72Q650,554,631.41,554q-25.14,0-38-12.43t-12.86-33.86q0-21.15,14.29-31.72T634,465.38H655.7q-.57-9.15-5.85-14.15T635.7,446.23Zm-1.43,46q-7.14,0-11.57,4.28a14.45,14.45,0,0,0-4.43,10.86,12.11,12.11,0,0,0,3.71,8.86A13.14,13.14,0,0,0,631.7,520q12.57,0,24.29-10.85V492.24Z"/><path class="cls-2" d="M959.45,562.26l-8.16,27.13h-4.6l-5.88-19.94L935,589.39h-4.6l-8.19-27.13h5.35l5,20.69,6.11-20.69H943L949.14,583l5-20.69Z"/><path class="cls-2" d="M974.28,561.65a12.08,12.08,0,0,1,9.27,3.7q3.47,3.72,3.47,10.49t-3.47,10.47a13.37,13.37,0,0,1-18.51,0q-3.46-3.72-3.47-10.47T965,565.35A12,12,0,0,1,974.28,561.65Zm0,24.6a6.92,6.92,0,0,0,5.6-2.62c1.44-1.75,2.15-4.35,2.15-7.79s-.71-6.06-2.15-7.81a7.29,7.29,0,0,0-11.2,0q-2.14,2.63-2.15,7.81t2.15,7.79A6.92,6.92,0,0,0,974.28,586.25Z"/><path class="cls-2" d="M1006.51,566.66a10.67,10.67,0,0,0-3-.31c-2.45,0-4.56,1.29-6.31,3.86v19.18h-4.84V562.26h4.84v3.79c2-2.94,4.38-4.4,7.06-4.4a13.61,13.61,0,0,1,2.2.2Z"/><path class="cls-2" d="M1032.28,589.39h-5.75l-8.83-13.78-3,3v10.79h-4.84V551.9h4.84v21.25l10.46-10.89h6.08L1021,572.36Z"/><path class="cls-2" d="M1045.73,590q-11.12,0-11.63-8.74h4.83c0,3.3,2.29,5,6.75,5a7.23,7.23,0,0,0,4.57-1.24,3.8,3.8,0,0,0,1.57-3.11,2.67,2.67,0,0,0-1.53-2.6,39.46,39.46,0,0,0-6.33-1.95,23.17,23.17,0,0,1-7-2.69c-1.48-1-2.21-2.72-2.21-5.21a6.86,6.86,0,0,1,2.75-5.59,11.34,11.34,0,0,1,7.35-2.21q10.67,0,10.89,7.59h-4.8c-.18-2.56-2.09-3.83-5.76-3.83a7.93,7.93,0,0,0-4,.92,2.93,2.93,0,0,0-1.59,2.68,2.43,2.43,0,0,0,1.22,2.29,30.51,30.51,0,0,0,6.15,1.89,24,24,0,0,1,7.32,2.78q2.38,1.59,2.39,5.47a7.66,7.66,0,0,1-3,6.15A12,12,0,0,1,1045.73,590Z"/><circle class="cls-2" cx="755.2" cy="327.11" r="13.76"/><path class="cls-2" d="M765.54,311.28a19.22,19.22,0,0,1,2.5,2,18.9,18.9,0,0,1-23.17,29.69,19.14,19.14,0,0,1-2.5-1.95,18.9,18.9,0,0,1,23.17-29.7m2.6-4h0a23.66,23.66,0,0,0-29,37.17,25.38,25.38,0,0,0,3.13,2.45,23.69,23.69,0,0,0,30.31-3.74,23.67,23.67,0,0,0-1.3-33.43,22.37,22.37,0,0,0-3.13-2.45Z"/><path class="cls-1" d="M711.05,198.12a29,29,0,0,1,.24,3.5,28.14,28.14,0,0,1-56.28,0,27.07,27.07,0,0,1,.25-3.5,89.61,89.61,0,0,0-59.51,105.17,28.11,28.11,0,1,1,29.08,48.11,89.57,89.57,0,0,0,116.47.15,28.12,28.12,0,1,1,29.2-48,89.61,89.61,0,0,0-59.45-105.39Zm-27.9,126.57a41.36,41.36,0,1,1,41.35-41.36A41.41,41.41,0,0,1,683.15,324.69Z"/><circle class="cls-2" cx="610.8" cy="327.04" r="13.76"/><path class="cls-2" d="M621.13,311.21a19.22,19.22,0,0,1,2.5,2,18.9,18.9,0,0,1-23.17,29.69,19.14,19.14,0,0,1-2.5-1.95,18.9,18.9,0,0,1,23.17-29.7m2.61-4h0a23.66,23.66,0,0,0-29,37.17,24,24,0,0,0,3.13,2.45,23.66,23.66,0,0,0,25.88-39.62Z"/><path class="cls-3" d="M711.05,198.13a28.81,28.81,0,0,1,.24,3.49,28.14,28.14,0,0,1-56.28,0,27.23,27.23,0,0,1,.25-3.51,89.91,89.91,0,0,0-51.66,43.82L646,265.25a41.33,41.33,0,0,1,74-.61l42-24A89.93,89.93,0,0,0,711.05,198.13Z"/><circle class="cls-2" cx="683.15" cy="201.62" r="13.76"/><path class="cls-2" d="M693.48,185.8a17.89,17.89,0,0,1,2.51,2,18.9,18.9,0,0,1-23.17,29.69,17.89,17.89,0,0,1-2.51-2,18.9,18.9,0,0,1,23.17-29.69m2.61-4h0a23.63,23.63,0,1,0,3.13,2.44,23.67,23.67,0,0,0-3.13-2.44Z"/><path class="cls-4" d="M641.76,283.34a41.23,41.23,0,0,1,4.18-18.11l-42.34-23.3a89.54,89.54,0,0,0-7.88,61.38,28.12,28.12,0,1,1,29.08,48.11A89.3,89.3,0,0,0,683.11,373V324.7A41.41,41.41,0,0,1,641.76,283.34Z"/></svg>