<svg id="Camada_1" data-name="Camada 1" xmlns="http://www.w3.org/2000/svg" viewBox="0 0 841.89 595.28"><defs><style>.cls-1{fill:#66a3fa;}.cls-2{fill:#434141;}</style></defs><title>TokenLab_Logo</title><g id="LOGO"><path class="cls-1" d="M161.4,223.16l-62,16,50.92,30a18,18,0,0,1,6.36,24.64l-46.56,79a28.7,28.7,0,0,0,10.71-.68L194.94,353a28.77,28.77,0,0,0,20.66-35.05l-19.15-74.12A28.77,28.77,0,0,0,161.4,223.16Z"/><path class="cls-2" d="M270.35,357.71q-8.53,0-13.13-4.77t-4.59-13.73V295.09H244a2.83,2.83,0,0,1-1.92-.68,2.6,2.6,0,0,1-.79-2.1v-5.05l11.82-1.5L256,263.49a3.2,3.2,0,0,1,1-1.75,2.77,2.77,0,0,1,1.95-.67h6.41v24.84h20.85v9.18H265.3v43.27c0,3,.73,5.29,2.2,6.76a7.71,7.71,0,0,0,5.7,2.2,10.25,10.25,0,0,0,3.45-.53,14.85,14.85,0,0,0,2.52-1.18c.72-.42,1.32-.81,1.82-1.17a2.35,2.35,0,0,1,1.32-.54,2.18,2.18,0,0,1,1.77,1.22l3.71,6.05a23.84,23.84,0,0,1-7.9,4.8A26.93,26.93,0,0,1,270.35,357.71Z"/><path class="cls-2" d="M329.63,283.35A36.64,36.64,0,0,1,343.86,286a30.33,30.33,0,0,1,10.82,7.47,32.83,32.83,0,0,1,6.87,11.71,50.69,50.69,0,0,1,0,30.7,32.87,32.87,0,0,1-6.87,11.68A30.11,30.11,0,0,1,343.86,355a37.2,37.2,0,0,1-14.23,2.6,37.66,37.66,0,0,1-14.34-2.6,30.05,30.05,0,0,1-10.85-7.43,32.87,32.87,0,0,1-6.87-11.68,50.49,50.49,0,0,1,0-30.7,32.83,32.83,0,0,1,6.87-11.71A30.27,30.27,0,0,1,315.29,286,37.1,37.1,0,0,1,329.63,283.35Zm0,64.33q10.67,0,15.94-7.16t5.27-20q0-12.87-5.27-20.07t-15.94-7.18a22.26,22.26,0,0,0-9.43,1.85,17.52,17.52,0,0,0-6.69,5.33,23.64,23.64,0,0,0-4,8.58,45.81,45.81,0,0,0-1.32,11.49q0,12.81,5.3,20T329.63,347.68Z"/><path class="cls-2" d="M392.68,251.75v61.7H396a6.19,6.19,0,0,0,2.39-.4,5.69,5.69,0,0,0,2-1.59L423.14,287a8.47,8.47,0,0,1,2.1-1.88,5.63,5.63,0,0,1,2.95-.68h11.46l-26.54,28.26a16.06,16.06,0,0,1-4.13,3.77,13.17,13.17,0,0,1,2.31,2,17.87,17.87,0,0,1,2,2.52l28.18,35.58H430.12a6.7,6.7,0,0,1-2.82-.53,4.68,4.68,0,0,1-2-2l-23.69-29.53a5.68,5.68,0,0,0-2.1-2,8.18,8.18,0,0,0-3.17-.46h-3.63v34.44H379.94V251.75Z"/><path class="cls-2" d="M477.73,283.35a32.43,32.43,0,0,1,12,2.17,27,27,0,0,1,9.53,6.26,28.71,28.71,0,0,1,6.3,10.1,38.47,38.47,0,0,1,2.28,13.7,8.27,8.27,0,0,1-.64,4,2.68,2.68,0,0,1-2.42,1H456.59a39.62,39.62,0,0,0,1.85,11.89,24.29,24.29,0,0,0,4.69,8.43,18.91,18.91,0,0,0,7.12,5.06,24.54,24.54,0,0,0,9.25,1.67,27.31,27.31,0,0,0,8.22-1.1,39.07,39.07,0,0,0,5.95-2.39,45,45,0,0,0,4.16-2.38,5.5,5.5,0,0,1,2.88-1.11,2.8,2.8,0,0,1,2.42,1.21l3.56,4.63a23.89,23.89,0,0,1-5.62,4.94,35.71,35.71,0,0,1-7,3.46,44.7,44.7,0,0,1-7.72,2,46.24,46.24,0,0,1-7.9.68A36.52,36.52,0,0,1,464.67,355a30.16,30.16,0,0,1-10.89-7.4,33.84,33.84,0,0,1-7.15-12.06,49,49,0,0,1-2.57-16.51A42,42,0,0,1,446.37,305,33.18,33.18,0,0,1,453,293.63a30.38,30.38,0,0,1,10.61-7.54A34.69,34.69,0,0,1,477.73,283.35Zm.28,9.32q-9.18,0-14.45,5.3T457,312.66h39.42a25.21,25.21,0,0,0-1.24-8.07,18.42,18.42,0,0,0-3.63-6.34,16.29,16.29,0,0,0-5.8-4.12A19.49,19.49,0,0,0,478,292.67Z"/><path class="cls-2" d="M523.35,356.57V284.48H531a3.12,3.12,0,0,1,3.34,2.64l1,7.82a40.19,40.19,0,0,1,10.53-8.39,27.44,27.44,0,0,1,13.45-3.2,26.15,26.15,0,0,1,10.43,1.95,20.25,20.25,0,0,1,7.54,5.55,24.43,24.43,0,0,1,4.59,8.65,37.41,37.41,0,0,1,1.57,11.17v45.9H570.67v-45.9q0-8.18-3.74-12.7t-11.35-4.52a21.45,21.45,0,0,0-10.57,2.7,33.67,33.67,0,0,0-8.93,7.34v53.08Z"/><path class="cls-2" d="M619.2,250.82V356.57H601.62V250.82Z"/><path class="cls-2" d="M684.53,356.57a8.15,8.15,0,0,1-3.84-.74,5.24,5.24,0,0,1-2.14-3L677,347.61a62.91,62.91,0,0,1-5.41,4.37,31.51,31.51,0,0,1-5.48,3.17,27.92,27.92,0,0,1-6.09,1.92,36.62,36.62,0,0,1-7.15.64,28.07,28.07,0,0,1-8.54-1.24,18.79,18.79,0,0,1-6.76-3.74,16.67,16.67,0,0,1-4.41-6.19,22,22,0,0,1-1.57-8.61,17,17,0,0,1,2.17-8.15,20.48,20.48,0,0,1,7.23-7.26,46.06,46.06,0,0,1,13.45-5.37,95,95,0,0,1,20.92-2.42v-4.27q0-7.33-3.13-10.85t-9-3.53a21.57,21.57,0,0,0-7.08,1,29.26,29.26,0,0,0-5,2.24q-2.13,1.24-3.87,2.24a7.66,7.66,0,0,1-3.88,1,5.1,5.1,0,0,1-3.14-1,8.09,8.09,0,0,1-2.06-2.24l-3.13-5.63q12.6-11.52,30.32-11.52a29.82,29.82,0,0,1,11.46,2.09,24.36,24.36,0,0,1,8.53,5.84,24.94,24.94,0,0,1,5.31,8.93,34.35,34.35,0,0,1,1.81,11.39v46.11Zm-26.26-11a20.94,20.94,0,0,0,9.36-1.95,27.85,27.85,0,0,0,7.72-6V325.4a97.07,97.07,0,0,0-12.85,1.32,34,34,0,0,0-8.29,2.46,10.9,10.9,0,0,0-4.48,3.48,7.6,7.6,0,0,0-1.35,4.34c0,3.09.91,5.29,2.74,6.62A11.87,11.87,0,0,0,658.27,345.61Z"/><path class="cls-2" d="M709,356.57V250.82h17.57V292.6a35.84,35.84,0,0,1,9.79-7.44,26.59,26.59,0,0,1,12.28-2.74,25.63,25.63,0,0,1,11.42,2.49,24.35,24.35,0,0,1,8.68,7.15,33.57,33.57,0,0,1,5.52,11.28,53.36,53.36,0,0,1,1.92,14.88A55.42,55.42,0,0,1,774,334.37a37.08,37.08,0,0,1-6.3,12.42A28.11,28.11,0,0,1,745,357.64a27.23,27.23,0,0,1-6.23-.67,22.33,22.33,0,0,1-5.12-1.89,21.24,21.24,0,0,1-4.27-2.95,37.29,37.29,0,0,1-3.74-3.88l-.78,4.91a3.83,3.83,0,0,1-4.27,3.41Zm33.59-60.49a16.5,16.5,0,0,0-8.83,2.32,28.94,28.94,0,0,0-7.19,6.51v32.74a16.8,16.8,0,0,0,6.52,5.15,19,19,0,0,0,7.43,1.46,17.46,17.46,0,0,0,7.3-1.46,13.8,13.8,0,0,0,5.51-4.55,22.41,22.41,0,0,0,3.49-7.9A47.42,47.42,0,0,0,758,318.86q0-12-4-17.4T742.6,296.08Z"/><path class="cls-2" d="M133.25,276.48l-53-31.27a28.76,28.76,0,0,0-13.58,32.15l19.15,74.12A28.62,28.62,0,0,0,96.13,367.1l42.08-71.39A14,14,0,0,0,133.25,276.48Z"/></g></svg>