<?xml version="1.0" encoding="UTF-8" standalone="no"?>
<svg
   xmlns:dc="http://purl.org/dc/elements/1.1/"
   xmlns:cc="http://creativecommons.org/ns#"
   xmlns:rdf="http://www.w3.org/1999/02/22-rdf-syntax-ns#"
   xmlns:svg="http://www.w3.org/2000/svg"
   xmlns="http://www.w3.org/2000/svg"
   viewBox="0 0 2240 1587.4"
   height="1587.4"
   width="2240"
   xml:space="preserve"
   id="svg2"
   version="1.1"><metadata
     id="metadata8"><rdf:RDF><cc:Work
         rdf:about=""><dc:format>image/svg+xml</dc:format><dc:type
           rdf:resource="http://purl.org/dc/dcmitype/StillImage" /></cc:Work></rdf:RDF></metadata><defs
     id="defs6"><clipPath
       id="clipPath22"
       clipPathUnits="userSpaceOnUse"><path
         id="path20"
         d="M 0,1190.551 H 1680 V 0 H 0 Z" /></clipPath></defs><g
     transform="matrix(1.3333333,0,0,-1.3333333,0,1587.4)"
     id="g10"><g
       transform="translate(218.7723,736.9705)"
       id="g12"><path
         id="path14"
         style="fill:#1e130f;fill-opacity:1;fill-rule:nonzero;stroke:none"
         d="m 0,0 59.593,-78.486 h 41.136 L 38.007,1.782 100.294,78.684 H 61.613 L 0,3.137 V 78.684 H -32.146 V -78.486 H 0 Z" /></g><g
       id="g16"><g
         clip-path="url(#clipPath22)"
         id="g18"><g
           transform="translate(400.3036,742.7693)"
           id="g24"><path
             id="path26"
             style="fill:#1e130f;fill-opacity:1;fill-rule:nonzero;stroke:none"
             d="m 0,0 c 1.766,-2.25 2.677,-6.029 2.677,-11.296 v -3.612 -69.377 h 29.691 v 73.132 c 0,16.555 -4.16,28.002 -12.382,34.315 -6.892,5.275 -18.6,7.905 -35.084,7.905 H -71.317 V -84.285 h 29.246 V 5.877 h 24.295 C -9.11,5.877 -3.161,3.928 0,0" /></g><g
           transform="translate(482.9115,743.0383)"
           id="g28"><path
             id="path30"
             style="fill:#1e130f;fill-opacity:1;fill-rule:nonzero;stroke:none"
             d="m 0,0 c 5.759,5.545 12.325,8.318 19.717,8.318 9.378,0 16.769,-3.534 22.212,-10.583 4.981,-6.448 7.461,-14.758 7.461,-24.953 0,-9.569 -2.559,-17.697 -7.707,-24.287 -5.744,-7.351 -13.205,-11.011 -22.403,-11.011 -8.912,0 -16.247,3.818 -21.998,11.462 -5.133,6.741 -7.722,14.702 -7.722,23.836 C -10.44,-15.676 -6.947,-6.59 0,0 m 19.479,-86.803 c 18.432,0 33.111,5.434 43.956,16.302 10.876,10.868 16.317,25.42 16.317,43.727 0,21.736 -7.438,37.864 -22.282,48.352 -10.622,7.494 -23.305,11.233 -37.991,11.233 -15.265,0 -28.106,-3.597 -38.436,-10.781 -14.535,-10.053 -21.799,-26.316 -21.799,-48.804 0,-18.727 5.465,-33.437 16.39,-44.076 10.938,-10.63 25.569,-15.953 43.845,-15.953" /></g><g
           transform="translate(700.2904,691.0818)"
           id="g32"><path
             id="path34"
             style="fill:#1e130f;fill-opacity:1;fill-rule:nonzero;stroke:none"
             d="M 0,0 -26.102,82.754 H -57.344 L -82.97,0 -108.381,82.754 h -30.363 l 39.852,-115.351 32.193,-0.024 24.716,80.577 25.372,-80.537 33.491,-0.016 38.641,115.351 H 25.167 Z" /></g><path
           id="path36"
           style="fill:#1e130f;fill-opacity:1;fill-rule:nonzero;stroke:none"
           d="m 765.296,658.485 h 30.371 v 157.177 h -30.371 z" /><g
           transform="translate(862.4867,658.4846)"
           id="g38"><path
             id="path40"
             style="fill:#1e130f;fill-opacity:1;fill-rule:nonzero;stroke:none"
             d="M 0,0 H 43.615 V 22.925 H 3.818 c -11.256,0 -18.75,1.672 -22.608,5.006 -3.795,3.327 -5.711,9.22 -5.711,17.728 h 68.116 v 23.575 h -68.116 c 0,8.808 2.114,14.82 6.329,18.084 4.198,3.24 11.526,4.888 21.935,4.888 h 39.852 v 23.146 H 0 c -15.153,0 -27.281,-3.097 -36.423,-9.252 -13.957,-9.331 -20.912,-25.444 -20.912,-48.321 0,-17.76 4.856,-31.828 14.599,-42.205 C -32.985,5.197 -18.758,0 0,0" /></g><g
           transform="translate(999.2142,682.0745)"
           id="g42"><path
             id="path44"
             style="fill:#1e130f;fill-opacity:1;fill-rule:nonzero;stroke:none"
             d="m 0,0 h -17.587 c -14.162,0 -23.874,2.939 -29.142,8.817 -3.906,4.349 -5.862,11.573 -5.862,21.649 0,13.839 2.591,23.352 7.787,28.549 5.173,5.181 14.695,7.795 28.557,7.795 H 0 Z m -0.222,91.762 h -27.417 c -16.626,0 -29.926,-4.658 -39.781,-13.973 -10.828,-10.219 -16.207,-25 -16.207,-44.376 0,-20.279 6.448,-35.456 19.336,-45.516 9.895,-7.669 21.95,-11.487 36.21,-11.487 H 29.697 V 133.58 H 0 Z" /></g><g
           transform="translate(1122.7045,681.6238)"
           id="g46"><path
             id="path48"
             style="fill:#1e130f;fill-opacity:1;fill-rule:nonzero;stroke:none"
             d="m 0,0 h -19.566 c -13.032,0 -22.197,3.113 -27.409,9.268 -4.364,5.108 -6.544,13.142 -6.544,24.144 0,11.566 2.481,20.073 7.424,25.484 5.711,6.312 15.66,9.474 29.911,9.474 H 0 Z M 29.907,-18.814 V 92.212 h -54.623 c -19.224,0 -33.919,-4.847 -44.209,-14.527 -10.266,-9.696 -15.384,-24.152 -15.384,-43.386 0,-22.235 6.948,-38.142 20.897,-47.75 9.3,-6.456 21.127,-9.688 35.536,-9.688 H 0 c 0,-12.437 -6.147,-18.663 -18.442,-18.663 h -53.509 v -22.703 h 58.904 c 15.13,0 26.081,3.826 32.846,11.486 6.733,7.644 10.108,19.043 10.108,34.205" /></g><g
           transform="translate(1219.432,658.4846)"
           id="g50"><path
             id="path52"
             style="fill:#1e130f;fill-opacity:1;fill-rule:nonzero;stroke:none"
             d="M 0,0 H 43.631 V 22.925 H 3.818 c -11.216,0 -18.743,1.672 -22.608,5.006 -3.803,3.327 -5.72,9.22 -5.72,17.728 H 43.631 V 69.234 H -24.51 c 0,8.808 2.108,14.82 6.354,18.084 4.214,3.24 11.549,4.888 21.942,4.888 h 39.845 v 23.146 H 0 c -15.146,0 -27.266,-3.097 -36.424,-9.252 -13.941,-9.331 -20.912,-25.444 -20.912,-48.321 0,-17.76 4.88,-31.828 14.624,-42.205 C -32.97,5.197 -18.743,0 0,0" /></g><g
           transform="translate(1432.4301,685.0134)"
           id="g54"><path
             id="path56"
             style="fill:#1e130f;fill-opacity:1;fill-rule:nonzero;stroke:none"
             d="m 0,0 h -101.395 v 9.72 c 0,12.382 2.123,20.405 6.384,24.081 4.294,3.691 10.837,5.545 19.709,5.545 h 29.468 c 16.317,0 28.279,4.278 35.947,12.817 7.034,7.811 10.568,19.281 10.568,34.411 0,15.28 -4.357,26.6 -13.055,33.951 -7.937,6.741 -19.392,10.116 -34.395,10.116 h -89.021 v -26.529 h 74.398 c 9.902,0 16.889,-1.727 20.928,-5.165 3.439,-3.027 5.165,-7.874 5.165,-14.631 0,-5.378 -1.726,-9.656 -5.165,-12.809 -3.453,-3.153 -7.794,-4.721 -13.055,-4.721 H -80.07 c -20.818,0 -35.505,-3.826 -44.044,-11.502 -7.794,-6.899 -11.676,-18.393 -11.676,-34.49 V -26.529 H 0 Z" /></g><g
           transform="translate(1462.7797,815.6541)"
           id="g58"><path
             id="path60"
             style="fill:#1e130f;fill-opacity:1;fill-rule:nonzero;stroke:none"
             d="m 0,0 -21.593,-9.735 0.031,-24.747 18.87,7.953 v -130.64 H 30.594 V 0 Z" /></g><g
           transform="translate(198.9964,547.2957)"
           id="g62"><path
             id="path64"
             style="fill:#1e130f;fill-opacity:1;fill-rule:nonzero;stroke:none"
             d="m 0,0 c -2.39,0 -4.64,0 -6.186,0.281 v 37.457 c 1.616,0.352 4.005,0.633 7.168,0.633 12.931,0 19.256,-7.099 19.186,-18.271 C 20.168,7.309 13.07,-0.07 0,0 m 0.701,43.221 c -4.848,0 -9.276,-0.422 -13.071,-0.986 V -4.356 c 3.163,-0.422 6.746,-0.563 11.174,-0.563 9.206,0 16.516,2.39 21.014,6.816 4.356,4.358 6.814,10.683 6.814,18.414 0,7.659 -2.458,13.141 -6.744,17.005 -4.148,3.866 -10.401,5.905 -19.187,5.905" /></g><path
           id="path66"
           style="fill:#1e130f;fill-opacity:1;fill-rule:nonzero;stroke:none"
           d="m 233.285,542.799 h 6.186 v 34.013 h -6.186 z" /><g
           transform="translate(236.3778,590.2351)"
           id="g68"><path
             id="path70"
             style="fill:#1e130f;fill-opacity:1;fill-rule:nonzero;stroke:none"
             d="m 0,0 c -2.32,0 -3.866,-1.687 -3.866,-3.866 0,-2.038 1.476,-3.794 3.726,-3.794 h 0.071 c 2.389,0 3.863,1.756 3.863,3.794 C 3.794,-1.687 2.25,0 0,0" /></g><g
           transform="translate(272.6375,557.3455)"
           id="g72"><path
             id="path74"
             style="fill:#1e130f;fill-opacity:1;fill-rule:nonzero;stroke:none"
             d="m 0,0 c 0,-1.125 -0.141,-2.319 -0.492,-3.303 -1.266,-4.006 -4.709,-6.394 -8.573,-6.394 -6.606,0 -10.05,5.621 -10.05,12.227 0,7.941 4.218,12.931 10.12,12.931 4.567,0 7.518,-2.951 8.644,-6.607 C -0.07,8.012 0,7.099 0,6.113 Z M 0.773,14.336 H 0.632 c -1.544,2.882 -4.707,5.903 -10.611,5.903 -7.87,0 -15.391,-6.466 -15.391,-17.99 0,-9.487 6.044,-16.655 14.477,-16.655 5.271,0 8.996,2.529 10.823,5.692 h 0.14 v -3.724 c 0,-8.644 -4.637,-11.947 -10.963,-11.947 -4.216,0 -7.729,1.264 -9.979,2.739 l -1.546,-4.778 c 2.742,-1.827 7.239,-2.81 11.314,-2.81 4.287,0 9.065,1.053 12.439,4.076 3.232,3.021 4.849,7.729 4.849,15.6 V 10.19 c 0,4.077 0.071,6.887 0.28,9.276 h -5.48 z" /></g><g
           transform="translate(291.68,590.2351)"
           id="g76"><path
             id="path78"
             style="fill:#1e130f;fill-opacity:1;fill-rule:nonzero;stroke:none"
             d="m 0,0 c -2.319,0 -3.866,-1.687 -3.866,-3.866 0,-2.038 1.477,-3.794 3.727,-3.794 h 0.07 c 2.389,0 3.863,1.756 3.863,3.794 C 3.794,-1.687 2.25,0 0,0" /></g><path
           id="path80"
           style="fill:#1e130f;fill-opacity:1;fill-rule:nonzero;stroke:none"
           d="m 288.588,542.799 h 6.185 v 34.013 h -6.185 z" /><g
           transform="translate(312.4803,584.9636)"
           id="g82"><path
             id="path84"
             style="fill:#1e130f;fill-opacity:1;fill-rule:nonzero;stroke:none"
             d="m 0,0 -6.044,-1.897 v -6.255 h -5.271 v -4.707 h 5.271 v -18.484 c 0,-4.005 0.701,-7.027 2.389,-8.926 1.474,-1.615 3.795,-2.598 6.676,-2.598 2.389,0 4.286,0.421 5.482,0.843 l -0.281,4.709 c -0.915,-0.282 -1.899,-0.423 -3.585,-0.423 -3.443,0 -4.637,2.39 -4.637,6.605 v 18.274 h 8.854 v 4.707 l -8.854,0 z" /></g><g
           transform="translate(346.2093,554.2537)"
           id="g86"><path
             id="path88"
             style="fill:#1e130f;fill-opacity:1;fill-rule:nonzero;stroke:none"
             d="M 0,0 C 0,-0.633 -0.07,-1.336 -0.281,-1.968 -1.266,-4.85 -4.146,-7.66 -8.645,-7.66 c -3.09,0 -5.76,1.826 -5.76,5.902 0,6.607 7.66,7.801 14.405,7.66 z m 6.044,9.417 c 0,6.816 -2.531,13.914 -13.001,13.914 -4.286,0 -8.433,-1.194 -11.245,-2.951 l 1.407,-4.147 c 2.39,1.618 5.691,2.53 8.924,2.53 6.958,0.071 7.732,-5.06 7.732,-7.87 V 10.19 c -13.143,0.07 -20.452,-4.428 -20.452,-12.65 0,-4.919 3.515,-9.769 10.402,-9.769 4.849,0 8.573,2.39 10.4,5.06 h 0.212 l 0.562,-4.286 h 5.551 c -0.352,2.319 -0.492,5.2 -0.492,8.152 z" /></g><path
           id="path90"
           style="fill:#1e130f;fill-opacity:1;fill-rule:nonzero;stroke:none"
           d="m 362.159,542.799 h 6.186 v 49.896 h -6.186 z" /><g
           transform="translate(385.5599,584.9636)"
           id="g92"><path
             id="path94"
             style="fill:#1e130f;fill-opacity:1;fill-rule:nonzero;stroke:none"
             d="m 0,0 h 14.406 v -42.165 h 6.185 V 0 H 35.066 V 5.2 H 0 Z" /></g><g
           transform="translate(428.1449,570.1365)"
           id="g96"><path
             id="path98"
             style="fill:#1e130f;fill-opacity:1;fill-rule:nonzero;stroke:none"
             d="m 0,0 h -0.211 l -0.281,6.675 h -5.412 c 0.211,-3.162 0.28,-6.606 0.28,-10.612 v -23.401 h 6.186 v 18.201 c 0,0.984 0.07,1.967 0.211,2.881 0.843,4.569 3.934,7.871 8.291,7.871 0.844,0 1.475,-0.07 2.109,-0.139 V 7.308 C 10.611,7.378 10.119,7.448 9.487,7.448 5.341,7.448 1.544,4.566 0,0" /></g><g
           transform="translate(463.0697,554.2537)"
           id="g100"><path
             id="path102"
             style="fill:#1e130f;fill-opacity:1;fill-rule:nonzero;stroke:none"
             d="M 0,0 C 0,-0.633 -0.069,-1.336 -0.281,-1.968 -1.266,-4.85 -4.147,-7.66 -8.645,-7.66 c -3.09,0 -5.76,1.826 -5.76,5.902 0,6.607 7.66,7.801 14.405,7.66 z m 6.044,9.417 c 0,6.816 -2.531,13.914 -13,13.914 -4.287,0 -8.434,-1.194 -11.246,-2.951 l 1.407,-4.147 c 2.39,1.618 5.691,2.53 8.923,2.53 6.959,0.071 7.732,-5.06 7.732,-7.87 V 10.19 c -13.141,0.07 -20.451,-4.428 -20.451,-12.65 0,-4.919 3.515,-9.769 10.403,-9.769 4.847,0 8.572,2.39 10.399,5.06 h 0.211 l 0.562,-4.286 h 5.552 c -0.352,2.319 -0.492,5.2 -0.492,8.152 z" /></g><g
           transform="translate(495.9554,577.5847)"
           id="g104"><path
             id="path106"
             style="fill:#1e130f;fill-opacity:1;fill-rule:nonzero;stroke:none"
             d="m 0,0 c -5.621,0 -9.557,-3.162 -11.243,-6.325 h -0.141 l -0.351,5.552 h -5.482 c 0.211,-2.811 0.28,-5.622 0.28,-9.206 v -24.807 h 6.187 v 20.52 c 0,0.985 0.139,2.109 0.42,2.881 1.126,3.444 4.288,6.325 8.294,6.325 5.833,0 7.869,-4.637 7.869,-10.12 v -19.606 h 6.186 v 20.309 C 12.019,-2.811 4.709,0 0,0" /></g><g
           transform="translate(528.9838,562.5457)"
           id="g108"><path
             id="path110"
             style="fill:#1e130f;fill-opacity:1;fill-rule:nonzero;stroke:none"
             d="m 0,0 c -4.428,1.758 -6.395,3.021 -6.395,5.833 0,2.529 1.967,4.638 5.622,4.638 3.162,0 5.621,-1.195 6.956,-1.967 l 1.477,4.427 c -1.827,1.194 -4.85,2.108 -8.294,2.108 -7.238,0 -11.735,-4.497 -11.735,-9.978 0,-4.007 2.881,-7.379 9.064,-9.628 4.498,-1.687 6.255,-3.234 6.255,-6.185 0,-2.882 -2.107,-5.06 -6.536,-5.06 -3.09,0 -6.324,1.265 -8.222,2.39 l -1.474,-4.639 c 2.389,-1.405 5.833,-2.388 9.557,-2.388 7.941,0 12.651,4.216 12.651,10.259 C 8.926,-5.131 5.833,-2.178 0,0" /></g><g
           transform="translate(552.5238,578.6394)"
           id="g112"><path
             id="path114"
             style="fill:#1e130f;fill-opacity:1;fill-rule:nonzero;stroke:none"
             d="m 0,0 c 0,5.199 1.404,9.838 6.605,9.838 1.828,0 3.022,-0.351 4.006,-0.774 l 0.774,4.781 c -1.197,0.491 -3.024,0.983 -5.272,0.983 -2.811,0 -5.904,-0.914 -8.221,-3.163 C -4.99,8.924 -6.113,4.567 -6.113,-0.212 v -1.616 h -4.71 v -4.707 h 4.71 v -29.306 h 6.182 v 29.306 h 8.153 v 4.707 l -8.222,0 z" /></g><g
           transform="translate(579.5785,546.6638)"
           id="g116"><path
             id="path118"
             style="fill:#1e130f;fill-opacity:1;fill-rule:nonzero;stroke:none"
             d="m 0,0 h -0.069 c -5.974,0 -10.192,5.622 -10.192,13.071 0,6.465 3.163,13.212 10.401,13.212 7.309,0 10.191,-7.239 10.191,-13.001 C 10.331,5.551 5.903,0 0,0 m 0.282,30.921 c -9.346,0 -16.867,-6.677 -16.867,-18.062 0,-10.752 7.168,-17.498 16.305,-17.498 h 0.069 c 8.083,0 16.867,5.483 16.867,18.131 0,10.331 -6.606,17.429 -16.374,17.429" /></g><g
           transform="translate(609.6537,570.1365)"
           id="g120"><path
             id="path122"
             style="fill:#1e130f;fill-opacity:1;fill-rule:nonzero;stroke:none"
             d="m 0,0 h -0.212 l -0.28,6.675 h -5.412 c 0.211,-3.162 0.28,-6.606 0.28,-10.612 v -23.401 h 6.186 v 18.201 c 0,0.984 0.07,1.967 0.21,2.881 0.844,4.569 3.934,7.871 8.292,7.871 0.843,0 1.475,-0.07 2.109,-0.139 V 7.308 C 10.611,7.378 10.119,7.448 9.487,7.448 5.34,7.448 1.544,4.566 0,0" /></g><g
           transform="translate(664.6771,577.5847)"
           id="g124"><path
             id="path126"
             style="fill:#1e130f;fill-opacity:1;fill-rule:nonzero;stroke:none"
             d="m 0,0 c -3.234,0 -5.412,-0.843 -7.449,-2.39 -1.406,-1.053 -2.812,-2.46 -3.865,-4.427 h -0.142 C -12.932,-2.811 -16.444,0 -21.014,0 c -5.691,0 -8.853,-3.021 -10.751,-6.254 h -0.211 l -0.281,5.481 h -5.412 c 0.142,-2.811 0.28,-5.622 0.28,-9.206 v -24.807 h 6.045 v 20.52 c 0,1.054 0.142,2.109 0.491,3.022 0.986,3.092 3.868,6.184 7.661,6.184 4.71,0 7.098,-3.865 7.098,-9.276 v -20.45 h 6.045 v 21.082 c 0,1.054 0.211,2.18 0.491,3.093 1.124,2.951 3.794,5.551 7.378,5.551 4.92,0 7.378,-3.865 7.378,-10.47 v -19.256 h 6.045 v 20.028 C 11.243,-2.951 4.567,0 0,0" /></g><g
           transform="translate(703.8168,554.2537)"
           id="g128"><path
             id="path130"
             style="fill:#1e130f;fill-opacity:1;fill-rule:nonzero;stroke:none"
             d="M 0,0 C 0,-0.633 -0.07,-1.336 -0.281,-1.968 -1.266,-4.85 -4.147,-7.66 -8.646,-7.66 c -3.089,0 -5.759,1.826 -5.759,5.902 0,6.607 7.659,7.801 14.405,7.66 z m 6.044,9.417 c 0,6.816 -2.531,13.914 -13.001,13.914 -4.286,0 -8.434,-1.194 -11.245,-2.951 l 1.407,-4.147 c 2.39,1.618 5.691,2.53 8.923,2.53 6.959,0.071 7.732,-5.06 7.732,-7.87 V 10.19 c -13.142,0.07 -20.452,-4.428 -20.452,-12.65 0,-4.919 3.516,-9.769 10.403,-9.769 4.848,0 8.573,2.39 10.4,5.06 h 0.211 l 0.562,-4.286 h 5.552 c -0.353,2.319 -0.492,5.2 -0.492,8.152 z" /></g><g
           transform="translate(726.9359,584.9636)"
           id="g132"><path
             id="path134"
             style="fill:#1e130f;fill-opacity:1;fill-rule:nonzero;stroke:none"
             d="m 0,0 -6.044,-1.897 v -6.255 h -5.27 v -4.707 h 5.27 v -18.484 c 0,-4.005 0.701,-7.027 2.39,-8.926 1.474,-1.615 3.794,-2.598 6.675,-2.598 2.389,0 4.287,0.421 5.482,0.843 l -0.28,4.709 c -0.915,-0.282 -1.9,-0.423 -3.585,-0.423 -3.444,0 -4.638,2.39 -4.638,6.605 v 18.274 h 8.854 v 4.707 l -8.854,0 z" /></g><g
           transform="translate(745.8373,590.2351)"
           id="g136"><path
             id="path138"
             style="fill:#1e130f;fill-opacity:1;fill-rule:nonzero;stroke:none"
             d="m 0,0 c -2.319,0 -3.866,-1.687 -3.866,-3.866 0,-2.038 1.476,-3.794 3.726,-3.794 h 0.07 c 2.389,0 3.864,1.756 3.864,3.794 C 3.794,-1.687 2.25,0 0,0" /></g><path
           id="path140"
           style="fill:#1e130f;fill-opacity:1;fill-rule:nonzero;stroke:none"
           d="m 742.745,542.799 h 6.186 v 34.013 h -6.186 z" /><g
           transform="translate(773.3129,546.6638)"
           id="g142"><path
             id="path144"
             style="fill:#1e130f;fill-opacity:1;fill-rule:nonzero;stroke:none"
             d="m 0,0 h -0.069 c -5.975,0 -10.192,5.622 -10.192,13.071 0,6.465 3.163,13.212 10.401,13.212 7.309,0 10.191,-7.239 10.191,-13.001 C 10.331,5.551 5.902,0 0,0 m 0.281,30.921 c -9.345,0 -16.867,-6.677 -16.867,-18.062 0,-10.752 7.168,-17.498 16.305,-17.498 h 0.07 c 8.082,0 16.867,5.483 16.867,18.131 0,10.331 -6.606,17.429 -16.375,17.429" /></g><g
           transform="translate(814.7025,577.5847)"
           id="g146"><path
             id="path148"
             style="fill:#1e130f;fill-opacity:1;fill-rule:nonzero;stroke:none"
             d="m 0,0 c -5.622,0 -9.558,-3.162 -11.243,-6.325 h -0.142 l -0.35,5.552 h -5.483 c 0.211,-2.811 0.281,-5.622 0.281,-9.206 v -24.807 h 6.186 v 20.52 c 0,0.985 0.14,2.109 0.42,2.881 1.127,3.444 4.289,6.325 8.294,6.325 5.833,0 7.869,-4.637 7.869,-10.12 v -19.606 h 6.187 v 20.309 C 12.019,-2.811 4.708,0 0,0" /></g><g
           transform="translate(863.0463,566.3406)"
           id="g150"><path
             id="path152"
             style="fill:#1e130f;fill-opacity:1;fill-rule:nonzero;stroke:none"
             d="m 0,0 c -2.037,0 -3.725,0.141 -5.061,0.492 v 18.342 c 1.055,0.28 3.094,0.492 5.764,0.492 6.747,0 11.173,-3.022 11.173,-9.276 C 11.876,3.584 7.379,0 0,0 m 0.563,24.176 c -4.919,0 -8.786,-0.422 -11.737,-0.986 v -46.732 h 6.113 v 19.045 c 1.408,-0.353 3.094,-0.422 4.921,-0.422 5.972,0 11.244,1.757 14.477,5.2 2.46,2.46 3.725,5.833 3.725,10.12 0,4.146 -1.616,7.589 -4.216,9.838 -2.813,2.531 -7.241,3.937 -13.283,3.937" /></g><g
           transform="translate(901.4164,546.6638)"
           id="g154"><path
             id="path156"
             style="fill:#1e130f;fill-opacity:1;fill-rule:nonzero;stroke:none"
             d="m 0,0 h -0.07 c -5.974,0 -10.191,5.622 -10.191,13.071 0,6.465 3.162,13.212 10.401,13.212 7.308,0 10.19,-7.239 10.19,-13.001 C 10.33,5.551 5.902,0 0,0 m 0.281,30.921 c -9.346,0 -16.867,-6.677 -16.867,-18.062 0,-10.752 7.168,-17.498 16.305,-17.498 h 0.069 c 8.083,0 16.867,5.483 16.867,18.131 0,10.331 -6.606,17.429 -16.374,17.429" /></g><g
           transform="translate(959.9535,559.7351)"
           id="g158"><path
             id="path160"
             style="fill:#1e130f;fill-opacity:1;fill-rule:nonzero;stroke:none"
             d="m 0,0 c -1.124,-4.006 -2.039,-7.59 -2.601,-11.033 h -0.212 c -0.77,3.443 -1.754,7.097 -3.02,11.103 l -5.271,17.006 h -5.202 l -5.551,-17.288 c -1.123,-3.724 -2.247,-7.378 -3.021,-10.821 h -0.211 c -0.632,3.512 -1.547,7.097 -2.459,10.892 l -4.567,17.217 h -6.325 l 10.26,-34.013 h 5.621 l 5.483,16.164 c 1.193,3.654 2.248,7.238 3.091,11.314 h 0.141 c 0.843,-4.006 1.827,-7.379 3.021,-11.244 l 5.201,-16.234 H 0 L 10.964,17.076 H 4.848 Z" /></g><g
           transform="translate(979.9779,563.1082)"
           id="g162"><path
             id="path164"
             style="fill:#1e130f;fill-opacity:1;fill-rule:nonzero;stroke:none"
             d="m 0,0 c 0.492,4.287 3.162,10.05 9.487,10.05 6.887,0 8.574,-6.114 8.503,-10.05 z m 9.979,14.477 c -9.91,0 -16.023,-8.081 -16.023,-18.342 0,-10.191 6.325,-17.147 16.725,-17.147 5.413,0 9.207,1.195 11.384,2.178 l -1.124,4.428 c -2.247,-0.985 -4.989,-1.758 -9.418,-1.758 -6.182,0 -11.454,3.443 -11.593,11.736 h 23.824 c 0.139,0.702 0.211,1.616 0.211,2.882 0,6.254 -2.882,16.023 -13.986,16.023" /></g><g
           transform="translate(1017.222,570.1365)"
           id="g166"><path
             id="path168"
             style="fill:#1e130f;fill-opacity:1;fill-rule:nonzero;stroke:none"
             d="m 0,0 h -0.211 l -0.281,6.675 h -5.412 c 0.211,-3.162 0.281,-6.606 0.281,-10.612 v -23.401 h 6.185 v 18.201 c 0,0.984 0.07,1.967 0.211,2.881 0.843,4.569 3.934,7.871 8.292,7.871 0.843,0 1.475,-0.07 2.109,-0.139 V 7.308 C 10.611,7.378 10.119,7.448 9.485,7.448 5.341,7.448 1.544,4.566 0,0" /></g><g
           transform="translate(1037.4584,563.1082)"
           id="g170"><path
             id="path172"
             style="fill:#1e130f;fill-opacity:1;fill-rule:nonzero;stroke:none"
             d="m 0,0 c 0.492,4.287 3.162,10.05 9.487,10.05 6.887,0 8.574,-6.114 8.503,-10.05 z m 9.979,14.477 c -9.909,0 -16.023,-8.081 -16.023,-18.342 0,-10.191 6.325,-17.147 16.725,-17.147 5.413,0 9.207,1.195 11.384,2.178 l -1.124,4.428 c -2.247,-0.985 -4.99,-1.758 -9.415,-1.758 -6.185,0 -11.456,3.443 -11.595,11.736 h 23.823 c 0.14,0.702 0.211,1.616 0.211,2.882 0,6.254 -2.882,16.023 -13.986,16.023" /></g><g
           transform="translate(1092.2709,557.0642)"
           id="g174"><path
             id="path176"
             style="fill:#1e130f;fill-opacity:1;fill-rule:nonzero;stroke:none"
             d="m 0,0 c 0,-0.984 -0.07,-1.827 -0.281,-2.601 -1.124,-4.637 -4.92,-7.448 -9.066,-7.448 -6.605,0 -10.049,5.692 -10.049,12.65 0,7.449 3.794,13.07 10.189,13.07 4.64,0 8.014,-3.232 8.926,-7.097 C -0.07,7.73 0,6.747 0,5.902 Z M 6.184,35.63 H 0 V 15.391 h -0.14 c -1.476,2.67 -4.989,5.13 -10.26,5.13 -8.222,0 -15.321,-6.887 -15.25,-18.272 0,-10.33 6.394,-17.288 14.616,-17.288 5.552,0 9.629,2.882 11.526,6.677 h 0.14 l 0.282,-5.904 h 5.551 c -0.21,2.32 -0.281,5.763 -0.281,8.785 z" /></g><g
           transform="translate(1139.2816,546.9441)"
           id="g178"><path
             id="path180"
             style="fill:#1e130f;fill-opacity:1;fill-rule:nonzero;stroke:none"
             d="m 0,0 c -4.428,0 -8.083,2.952 -9.276,7.239 -0.142,0.702 -0.211,1.476 -0.211,2.248 v 6.115 c 0,0.984 0.138,1.827 0.35,2.6 1.196,4.638 5.129,7.589 9.346,7.589 6.605,0 10.121,-5.832 10.121,-12.72 C 10.33,5.271 6.534,0 0,0 m 2.247,30.641 c -5.481,0 -9.415,-2.39 -11.596,-6.185 H -9.487 V 45.75 h -6.187 V 4.639 c 0,-3.022 -0.069,-6.465 -0.28,-8.785 h 5.343 l 0.35,5.622 h 0.14 c 2.6,-4.497 6.466,-6.395 11.384,-6.395 7.591,0 15.32,6.044 15.32,18.272 0,10.26 -5.902,17.288 -14.336,17.288" /></g><g
           transform="translate(1177.2972,556.8533)"
           id="g182"><path
             id="path184"
             style="fill:#1e130f;fill-opacity:1;fill-rule:nonzero;stroke:none"
             d="M 0,0 C -0.844,-2.459 -1.547,-5.06 -2.179,-7.098 H -2.32 c -0.562,2.038 -1.405,4.708 -2.247,6.957 l -7.38,20.099 h -6.747 l 12.51,-31.343 c 0.351,-0.773 0.493,-1.263 0.493,-1.616 0,-0.352 -0.212,-0.843 -0.493,-1.476 -1.476,-3.162 -3.515,-5.551 -5.201,-6.886 -1.827,-1.546 -3.866,-2.53 -5.41,-3.022 l 1.544,-5.131 c 1.546,0.282 4.498,1.335 7.591,3.936 4.216,3.725 7.237,9.628 11.665,21.294 l 9.276,24.244 H 6.747 Z" /></g><g
           transform="translate(1203.015,584.9636)"
           id="g186"><path
             id="path188"
             style="fill:#1e130f;fill-opacity:1;fill-rule:nonzero;stroke:none"
             d="m 0,0 h 14.405 v -42.165 h 6.186 V 0 H 35.066 V 5.2 H 0 Z" /></g><g
           transform="translate(1245.6,570.1365)"
           id="g190"><path
             id="path192"
             style="fill:#1e130f;fill-opacity:1;fill-rule:nonzero;stroke:none"
             d="m 0,0 h -0.212 l -0.28,6.675 h -5.413 c 0.212,-3.162 0.281,-6.606 0.281,-10.612 v -23.401 h 6.186 v 18.201 c 0,0.984 0.07,1.967 0.211,2.881 0.843,4.569 3.934,7.871 8.292,7.871 0.843,0 1.475,-0.07 2.108,-0.139 V 7.308 C 10.611,7.378 10.119,7.448 9.487,7.448 5.341,7.448 1.544,4.566 0,0" /></g><g
           transform="translate(1291.4174,576.8113)"
           id="g194"><path
             id="path196"
             style="fill:#1e130f;fill-opacity:1;fill-rule:nonzero;stroke:none"
             d="m 0,0 h -6.184 v -20.801 c 0,-1.194 -0.211,-2.319 -0.564,-3.163 -1.124,-2.81 -4.005,-5.691 -8.15,-5.691 -5.552,0 -7.59,4.426 -7.59,10.891 V 0 h -6.184 v -19.887 c 0,-11.877 6.395,-14.899 11.735,-14.899 6.044,0 9.699,3.584 11.244,6.325 h 0.141 l 0.351,-5.552 H 0.28 C 0.069,-31.343 0,-28.25 0,-24.666 Z" /></g><g
           transform="translate(1305.2582,563.1082)"
           id="g198"><path
             id="path200"
             style="fill:#1e130f;fill-opacity:1;fill-rule:nonzero;stroke:none"
             d="m 0,0 c 0.492,4.287 3.163,10.05 9.488,10.05 6.887,0 8.573,-6.114 8.503,-10.05 z m 9.98,14.477 c -9.91,0 -16.024,-8.081 -16.024,-18.342 0,-10.191 6.325,-17.147 16.726,-17.147 5.412,0 9.206,1.195 11.383,2.178 l -1.123,4.428 c -2.248,-0.985 -4.99,-1.758 -9.418,-1.758 -6.183,0 -11.454,3.443 -11.593,11.736 h 23.823 c 0.14,0.702 0.211,1.616 0.211,2.882 0,6.254 -2.881,16.023 -13.985,16.023" /></g><g
           transform="translate(1360.9115,562.4753)"
           id="g202"><path
             id="path204"
             style="fill:#1e130f;fill-opacity:1;fill-rule:nonzero;stroke:none"
             d="m 0,0 4.637,13.703 c 0.915,2.882 1.688,5.833 2.32,8.574 H 7.168 C 7.872,19.536 8.573,16.726 9.557,13.634 L 14.267,0 Z m 3.583,27.688 -16.092,-47.365 h 6.325 l 4.918,14.899 h 16.797 l 5.06,-14.899 h 6.534 L 10.962,27.688 Z" /></g><g
           transform="translate(1416.85,557.3455)"
           id="g206"><path
             id="path208"
             style="fill:#1e130f;fill-opacity:1;fill-rule:nonzero;stroke:none"
             d="m 0,0 c 0,-1.125 -0.142,-2.319 -0.492,-3.303 -1.266,-4.006 -4.709,-6.394 -8.573,-6.394 -6.606,0 -10.049,5.621 -10.049,12.227 0,7.941 4.217,12.931 10.119,12.931 4.567,0 7.518,-2.951 8.644,-6.607 C -0.07,8.012 0,7.099 0,6.113 Z M 0.773,14.336 H 0.632 c -1.544,2.882 -4.707,5.903 -10.611,5.903 -7.87,0 -15.39,-6.466 -15.39,-17.99 0,-9.487 6.043,-16.655 14.476,-16.655 5.272,0 8.996,2.529 10.823,5.692 h 0.139 v -3.724 c 0,-8.644 -4.636,-11.947 -10.962,-11.947 -4.216,0 -7.729,1.264 -9.979,2.739 l -1.546,-4.778 c 2.742,-1.827 7.239,-2.81 11.314,-2.81 4.287,0 9.065,1.053 12.439,4.076 3.232,3.021 4.849,7.729 4.849,15.6 V 10.19 c 0,4.077 0.071,6.887 0.28,9.276 h -5.48 z" /></g><path
           id="path210"
           style="fill:#1e130f;fill-opacity:1;fill-rule:nonzero;stroke:none"
           d="m 1432.797,542.799 h 6.186 v 34.013 h -6.186 z" /><g
           transform="translate(1435.891,590.2351)"
           id="g212"><path
             id="path214"
             style="fill:#1e130f;fill-opacity:1;fill-rule:nonzero;stroke:none"
             d="m 0,0 c -2.32,0 -3.866,-1.687 -3.866,-3.866 0,-2.038 1.476,-3.794 3.726,-3.794 h 0.07 c 2.388,0 3.863,1.756 3.863,3.794 C 3.793,-1.687 2.249,0 0,0" /></g><path
           id="path216"
           style="fill:#1e130f;fill-opacity:1;fill-rule:nonzero;stroke:none"
           d="m 1449.24,542.799 h 6.186 v 49.896 h -6.186 z" /><g
           transform="translate(1469.4086,563.1082)"
           id="g218"><path
             id="path220"
             style="fill:#1e130f;fill-opacity:1;fill-rule:nonzero;stroke:none"
             d="M 0,0 C 0.492,4.287 3.162,10.05 9.487,10.05 16.374,10.05 18.06,3.936 17.99,0 Z m 9.979,14.477 c -9.91,0 -16.024,-8.081 -16.024,-18.342 0,-10.191 6.325,-17.147 16.726,-17.147 5.412,0 9.206,1.195 11.384,2.178 l -1.124,4.428 c -2.248,-0.985 -4.99,-1.758 -9.418,-1.758 -6.183,0 -11.454,3.443 -11.593,11.736 h 23.824 c 0.139,0.702 0.211,1.616 0.211,2.882 0,6.254 -2.882,16.023 -13.986,16.023" /></g></g></g></g></svg>