<svg id="Layer_1" data-name="Layer 1" xmlns="http://www.w3.org/2000/svg" viewBox="0 0 848.43 882.79"><defs><style>.cls-1{fill:#e04b55;}.cls-2{fill:#fff;}</style></defs><title>logo_onovolab</title><circle class="cls-1" cx="424.21" cy="441.4" r="323.37"/><path class="cls-2" d="M623.64,404.67c20.64-.09,34.87,15.84,32.12,36.13-.56,4.12.3,6.38,4.07,8.88,12.65,8.39,17.88,21.18,16.95,35.79-1,15.51-11.62,24.63-25.27,29-18,5.81-36.5,9.8-54.7,14.89-4.15,1.16-5.16-.24-6.12-3.84-8.94-33.64-18.1-67.22-26.94-100.88-.45-1.71,1-5.5,2.23-5.84,18.23-5,36.57-9.53,54.9-14.14A11.55,11.55,0,0,1,623.64,404.67Zm-9.55,96.88c10.51-2.81,20.5-5.33,30.41-8.18,7.44-2.14,10.61-7.62,9-14.73-1.35-6-6.78-9.7-13.86-8.26-9.45,1.92-18.76,4.57-28,7.27-1.32.39-3.14,3-2.87,4.24C610.15,488.35,612.16,494.69,614.09,501.55ZM602,457.09c8.4-2.32,16.25-4.16,23.87-6.69a11.42,11.42,0,0,0,7.72-13.12c-1.44-6.26-7.18-10.9-13.26-9.66-8,1.64-15.93,4.14-24.36,6.41C598,441.79,599.83,448.85,602,457.09Z"/><path class="cls-2" d="M321.66,402.16c4.82,18.23,9.28,35.07,13.92,52.63l-27.52,7.47c-9.88-36.86-19.63-73.23-29.91-111.6L365.7,387c-4.51-17.09-8.34-33-13-48.59-1.7-5.71.1-7.44,5.08-8.54,5.41-1.18,10.66-3.21,16.1-4,1.84-.28,5.48,1.63,5.91,3.2,9.6,34.9,18.87,69.9,28.74,106.9Z"/><path class="cls-2" d="M189.1,565.31a59.44,59.44,0,0,1,59.26-59.1c32.18.06,59.15,27.12,59.24,59.42.08,32.62-26.91,59.28-59.92,59.19C215.12,624.72,189,598.23,189.1,565.31Zm92.2,1.29c.44-19-13.72-33.82-32.56-34.11-18.17-.28-33.33,13.84-33.86,31.56-.58,19.06,14,34.67,32.71,35A33.14,33.14,0,0,0,281.3,566.6Z"/><path class="cls-2" d="M153,430.26c.1-32.37,27.33-59.27,59.53-58.81,32.49.46,59.15,27.42,59,59.63-.16,32.74-27,59.05-60.16,58.91C178.82,489.84,152.85,463.26,153,430.26Zm92.21,1.57c.44-18.76-13.35-33.53-31.83-34.1s-34,13.52-34.6,31.48c-.61,19.07,14,34.67,32.69,35A33.08,33.08,0,0,0,245.17,431.83Z"/><path class="cls-2" d="M416.84,360.31c0-33,25.8-59,58.86-59.29a58.75,58.75,0,0,1,59.11,59c0,33.13-25.88,59.11-58.85,59.08C442.78,419.11,416.88,393.33,416.84,360.31Zm59-33.23c-18.66,0-33.07,14.2-33.16,32.7-.09,19,14.27,33.57,33.09,33.59A32.85,32.85,0,0,0,509,360.55C509.06,341.53,494.76,327.08,475.86,327.08Z"/><path class="cls-2" d="M448,569.09C458.22,526,468,484.68,478.22,441.4l89.86,95.52c-10.91,3-20.48,6-30.27,7.91-2,.38-5.41-3.14-7.12-5.6-4.06-5.85-8.75-7-15.39-4.7a216.83,216.83,0,0,1-24.68,6.73c-5.2,1.13-8.07,3.46-8.46,8.87-1,12.89.52,9.82-13.05,13.61C462.91,565.6,456.23,567,448,569.09Zm41.3-50.89,17.53-4.83-13.26-14.54C492.05,505.91,490.83,511.42,489.34,518.2Z"/><path class="cls-2" d="M596.42,323.68c4.38-19.46,8.56-37.43,12.37-55.48.88-4.18,2.43-6.4,6.8-7.37,8.3-1.83,16.47-4.32,26.42-7-10.09,42.81-19.88,84.38-30.11,127.81L522,286.1c10.83-2.94,20.21-5.75,29.75-7.83,1.7-.37,4.45,1.94,6,3.64C570.41,295.39,582.9,309,596.42,323.68Z"/><path class="cls-2" d="M417.55,550.77c2.27,8.45,4.34,16.15,6.66,24.8l-80.34,21.61L314.09,486.26c8.53-2.32,16.4-4.74,24.44-6.36,1.23-.25,4.12,2.93,4.69,5,6.49,23.32,12.6,46.75,19,70.1,3,11.14.86,10.21,12.64,7.07C388.84,558.32,402.83,554.65,417.55,550.77Z"/></svg>