<svg width="1096" height="312" xmlns="http://www.w3.org/2000/svg">

 <g>
  <title>background</title>
  <rect fill="none" id="canvas_background" height="402" width="582" y="-1" x="-1"/>
 </g>
 <g>
  <title>Layer 1</title>
  <path stroke="#fff" id="svg_1" fill="none" d="m0,0l1096,0l0,312l-1096,0l0,-312z"/>
  <path id="svg_2" fill="#333" d="m951.55,238.38l0,-150.38l25.24,0l0,59.4a50.94,50.94 0 0 1 14.05,-10.57a38.49,38.49 0 0 1 17.62,-3.9a37.13,37.13 0 0 1 16.4,3.54a35.17,35.17 0 0 1 12.46,10.17a47.68,47.68 0 0 1 7.92,16a75.16,75.16 0 0 1 2.76,21.15a78.18,78.18 0 0 1 -3.17,23a52.51,52.51 0 0 1 -9,17.66a40.51,40.51 0 0 1 -32.54,15.43a38.66,38.66 0 0 1 -8.94,-1a32.53,32.53 0 0 1 -7.36,-2.68a30.84,30.84 0 0 1 -6.13,-4.2a53,53 0 0 1 -5.36,-5.52l-1.12,7a6.25,6.25 0 0 1 -2.1,3.75a6.58,6.58 0 0 1 -4,1.11l-16.73,0.04zm48.23,-86a23.94,23.94 0 0 0 -12.67,3.29a41.28,41.28 0 0 0 -10.32,9.26l0,46.55a24,24 0 0 0 9.35,7.34a27.9,27.9 0 0 0 10.67,2.07a25.45,25.45 0 0 0 10.47,-2.07a19.83,19.83 0 0 0 7.92,-6.48a31.84,31.84 0 0 0 5,-11.23a66.89,66.89 0 0 0 1.74,-16.34q0,-17.12 -5.72,-24.75t-16.44,-7.66l0,0.02zm-83.37,86a11.63,11.63 0 0 1 -5.52,-1.06q-1.93,-1.06 -3.07,-4.3l-2.24,-7.39a90.35,90.35 0 0 1 -7.77,6.22a46.2,46.2 0 0 1 -7.86,4.51a41,41 0 0 1 -8.74,2.73a53.31,53.31 0 0 1 -10.27,0.91a40.63,40.63 0 0 1 -12.26,-1.77a27,27 0 0 1 -9.7,-5.31a23.82,23.82 0 0 1 -6.34,-8.81a30.94,30.94 0 0 1 -2.25,-12.24a24,24 0 0 1 3.12,-11.59q3.12,-5.72 10.37,-10.32t19.31,-7.64q12.06,-3 30,-3.44l0,-6.08q0,-10.41 -4.5,-15.43t-13,-5a30.94,30.94 0 0 0 -10.17,1.42a42.4,42.4 0 0 0 -7.1,3.19q-3.06,1.77 -5.57,3.18a11,11 0 0 1 -5.57,1.42a7.3,7.3 0 0 1 -4.49,-1.36a11.49,11.49 0 0 1 -3,-3.19l-4.49,-8q18.09,-16.4 43.52,-16.39a43,43 0 0 1 16.45,3a34.69,34.69 0 0 1 12.26,8.3a35.34,35.34 0 0 1 7.61,12.7a48.31,48.31 0 0 1 2.61,16.19l0,65.58l-11.34,-0.03zm-37.7,-15.58a30.12,30.12 0 0 0 13.43,-2.8a39.74,39.74 0 0 0 11.09,-8.45l0,-17.5a138.16,138.16 0 0 0 -18.44,1.87a49.27,49.27 0 0 0 -11.91,3.49a15.71,15.71 0 0 0 -6.43,5a10.66,10.66 0 0 0 -1.94,6.17q0,6.58 3.93,9.41t10.27,2.81zm-56.09,-134.8l0,150.38l-25.24,0l0,-150.38l25.24,0zm-137.62,150.38l0,-102.51l10.93,0a4.48,4.48 0 0 1 4.8,3.74l1.43,11.13a58.08,58.08 0 0 1 15.12,-11.94a39.87,39.87 0 0 1 19.31,-4.55a37.75,37.75 0 0 1 15,2.78a29.07,29.07 0 0 1 10.83,7.89a34.9,34.9 0 0 1 6.59,12.3a53,53 0 0 1 2.25,15.89l0,65.27l-18.32,0l0,-65.27q0,-11.64 -5.37,-18.07t-16.29,-6.42a31,31 0 0 0 -15.17,3.84a48.19,48.19 0 0 0 -12.83,10.43l0,75.49l-18.28,0zm-65.5,-104.13a47.18,47.18 0 0 1 17.22,3.08a39,39 0 0 1 13.69,8.91a40.74,40.74 0 0 1 9,14.37a54.24,54.24 0 0 1 3.27,19.48c0,2.83 -0.3,4.72 -0.92,5.67s-1.77,1.41 -3.47,1.41l-69.13,0a56,56 0 0 0 2.66,16.9a34.4,34.4 0 0 0 6.74,12a27,27 0 0 0 10.22,7.18a35.3,35.3 0 0 0 13.28,2.38a39.17,39.17 0 0 0 11.8,-1.57a55.25,55.25 0 0 0 8.53,-3.39a62.51,62.51 0 0 0 6,-3.39a8,8 0 0 1 4.14,-1.57a4,4 0 0 1 3.47,1.72l5.11,6.58a34.27,34.27 0 0 1 -8.07,7a50,50 0 0 1 -10.04,4.99a64.41,64.41 0 0 1 -11.08,2.89a68.54,68.54 0 0 1 -11.34,1a53.11,53.11 0 0 1 -19.77,-3.59a43.45,43.45 0 0 1 -15.63,-10.53a48.08,48.08 0 0 1 -10.27,-17.15a69.22,69.22 0 0 1 -3.68,-23.48a59.34,59.34 0 0 1 3.32,-20a47.17,47.17 0 0 1 9.55,-16.14a44.08,44.08 0 0 1 15.23,-10.73a50.46,50.46 0 0 1 20.17,-4.02zm0.41,13.25q-13.17,0 -20.74,7.54t-9.4,20.9l56.61,0a35.22,35.22 0 0 0 -1.79,-11.48a25.7,25.7 0 0 0 -5.21,-9a23.29,23.29 0 0 0 -8.33,-5.87a28.4,28.4 0 0 0 -11.14,-2.09zm-122.5,-58.18l0,87.74l4.7,0a9.2,9.2 0 0 0 3.42,-0.56a8.25,8.25 0 0 0 2.91,-2.28l32.7,-34.71a12.16,12.16 0 0 1 3,-2.68a8.14,8.14 0 0 1 4.24,-1l16.45,0l-38.1,40.17a22.86,22.86 0 0 1 -5.92,5.37a18.91,18.91 0 0 1 3.32,2.78a26.3,26.3 0 0 1 2.81,3.59l40.46,50.6l-16.25,0a9.66,9.66 0 0 1 -4,-0.76a6.66,6.66 0 0 1 -2.92,-2.78l-34,-42a8.08,8.08 0 0 0 -3,-2.78a11.8,11.8 0 0 0 -4.55,-0.66l-5.21,0l0,49l-18.35,0l0,-149.04l18.29,0zm-90.52,44.93a53.4,53.4 0 0 1 20.44,3.75a43.84,43.84 0 0 1 15.53,10.63a46.68,46.68 0 0 1 9.86,16.64a71.41,71.41 0 0 1 0,43.67a46.76,46.76 0 0 1 -9.86,16.6a43.18,43.18 0 0 1 -15.53,10.57a53.78,53.78 0 0 1 -20.44,3.7a54.34,54.34 0 0 1 -20.58,-3.7a43.07,43.07 0 0 1 -15.59,-10.57a46.76,46.76 0 0 1 -9.86,-16.6a71.41,71.41 0 0 1 0,-43.67a46.68,46.68 0 0 1 9.86,-16.64a43.72,43.72 0 0 1 15.59,-10.63a54,54 0 0 1 20.58,-3.75zm0,91.48q15.33,0 22.89,-10.17t7.56,-28.39q0,-18.31 -7.56,-28.53t-22.89,-10.22a32.32,32.32 0 0 0 -13.54,2.63a25.12,25.12 0 0 0 -9.6,7.59a33.6,33.6 0 0 0 -5.75,12.19a64.8,64.8 0 0 0 -1.89,16.34q0,18.22 7.61,28.39t23.17,10.17zm-85.1,14.27q-12.27,0 -18.85,-6.78t-6.59,-19.53l0,-62.69l-12.47,0a4.06,4.06 0 0 1 -2.76,-1a3.7,3.7 0 0 1 -1.12,-3l0,-7.19l17,-2.12l4.15,-31.69a4.38,4.38 0 0 1 1.38,-2.48a4,4 0 0 1 2.81,-1l9.19,0l0,35.32l29.94,0l0,13.16l-29.94,0l0,61.52q0,6.48 3.17,9.62a11.11,11.11 0 0 0 8.17,3.14a14.73,14.73 0 0 0 5,-0.76a22.89,22.89 0 0 0 3.63,-1.67c1,-0.61 1.89,-1.17 2.6,-1.67a3.43,3.43 0 0 1 1.89,-0.76a3.15,3.15 0 0 1 2.56,1.72l5.31,8.6a34,34 0 0 1 -11.34,6.83a38.91,38.91 0 0 1 -13.73,2.43z"/>
  <path id="svg_3" fill="#6090c0" d="m233.09,235.28l-106.16,27.43a41,41 0 0 1 -15.33,1l66.68,-113.14a25.77,25.77 0 0 0 -9.11,-35.29l-72.92,-43l88.81,-22.94a41.21,41.21 0 0 1 50.2,29.59l27.42,106.17a41.2,41.2 0 0 1 -29.59,50.18z"/>
  <path id="svg_4" fill="#333" d="m76.74,233.12l-27.42,-106.12a41.18,41.18 0 0 1 19.44,-46l76,44.79a20.1,20.1 0 0 1 7.11,27.53l-60.28,102.17a41.05,41.05 0 0 1 -14.85,-22.37z"/>
 </g>
</svg>